<?xml version="1.0" encoding="utf-8"?>
<!-- Generator: Adobe Illustrator 26.0.2, SVG Export Plug-In . SVG Version: 6.00 Build 0)  -->
<svg version="1.1" id="Layer_1" xmlns="http://www.w3.org/2000/svg" xmlns:xlink="http://www.w3.org/1999/xlink" x="0px" y="0px"
	 viewBox="0 0 2458 512" style="enable-background:new 0 0 2458 512;" xml:space="preserve">
<style type="text/css">
	.st0{fill:#4D4D4D;}
	.st1{fill:#0071BC;}
</style>
<desc>Created with Sketch.</desc>
<g>
	<path class="st0" d="M327.8,74.5v8.7c0,13.3-7.5,20.8-20.8,20.8H194.2v333.5c0,13.3-7.5,20.8-20.8,20.8h-19.1
		c-13.3,0-20.8-7.5-20.8-20.8V104H20.8C8.1,104,0,96.5,0,83.2v-8.7c0-13.3,8.1-20.8,20.8-20.8h286.1
		C320.2,53.7,327.8,61.2,327.8,74.5z"/>
	<path class="st0" d="M1147.8,182c0,68.2-45.1,124.9-123.1,124.9H922.4v130.6c0,13.3-7.5,20.8-20.8,20.8h-19.6
		c-13.3,0-20.8-7.5-20.8-20.8v-363c0-13.3,7.5-20.8,20.8-20.8h142.8C1103.3,53.7,1147.8,113.2,1147.8,182z M1084.8,181.4
		c0-45.7-27.7-77.5-72.3-77.5h-90.2v153.8h90.2C1057.7,257.7,1084.8,226,1084.8,181.4z"/>
	<path class="st0" d="M1230.4,437.5v-363c0-13.3,7.5-20.8,20.8-20.8h111.6c128.9,0,208.1,90.7,208.1,202.3s-79.2,202.3-208.1,202.3
		h-111.6C1237.9,458.3,1230.4,450.8,1230.4,437.5z M1361.6,408c90.8,0,146.8-67.6,146.8-152s-56.1-152-146.8-152h-69.9V408H1361.6z"
		/>
	<path class="st0" d="M1630.3,256c0-115,93.7-208.7,210.4-208.7c116.8,0,210.4,93.6,210.4,208.7s-93.6,208.7-210.4,208.7
		C1724,464.7,1630.3,371,1630.3,256z M1988.7,256c0-87.3-66.5-153.8-148-153.8s-148,66.5-148,153.8s66.5,153.8,148,153.8
		S1988.7,343.3,1988.7,256z"/>
	<path class="st0" d="M2110,256c0-112.7,81.5-208.7,219.1-208.7c50.3,0,86.7,12.7,117.9,32.9c11,7.5,13.3,16.8,6.9,28.9l-5.2,9.2
		c-6.4,11.6-16.2,13.9-28.9,6.9c-25.4-13.9-59-23.1-90.8-23.1c-99.4,0-156.6,70.5-156.6,153.8s57.2,153.8,156.6,153.8
		c31.8,0,65.3-9.3,90.8-23.1c12.7-6.9,22.5-4.6,28.9,6.9l5.2,9.2c6.4,12.1,5.2,20.2-3.5,26.6c-31.8,21.4-68.8,35.3-121.4,35.3
		C2191.5,464.7,2110,368.7,2110,256z"/>
</g>
<g>
	<path class="st1" d="M768.6,207l-17.8-32.5c-3.8-7-6.3-14.6-7.3-22.5l-4.7-36.7c-1.4-11.2-8.4-20.7-18.6-25.5l-33.4-15.8
		c-7.3-3.4-13.7-8.1-19.2-14l-25.3-26.9c-7.7-8.2-19-11.9-30.1-9.8l-36.3,6.9c-7.9,1.5-15.9,1.5-23.8,0l-36.3-6.9
		c-11.1-2.1-22.3,1.5-30.1,9.8L460.4,60c-5.5,5.8-12,10.5-19.2,14l-33.4,15.8c-10.2,4.8-17.1,14.4-18.6,25.5l-4.7,36.7
		c-1,7.9-3.5,15.5-7.3,22.5L359.3,207c-5.4,9.9-5.4,21.7,0,31.5l17.8,32.5c3.8,7,6.3,14.6,7.3,22.5l4.7,36.7
		c1.4,11.2,8.4,20.7,18.6,25.5l33.4,15.8c7.3,3.4,13.7,8.1,19.2,14l25.3,26.9c7.7,8.2,19,11.9,30.1,9.8l36.3-6.9
		c4-0.8,7.9-1.1,11.9-1.1c4,0,8,0.4,11.9,1.1l36.3,6.9c11.1,2.1,22.3-1.5,30.1-9.8l25.3-26.9c5.5-5.8,12-10.5,19.2-14l33.4-15.8
		c10.2-4.8,17.1-14.4,18.6-25.5l4.7-36.7c1-7.9,3.5-15.5,7.3-22.5l17.8-32.5C774,228.7,774,216.9,768.6,207z M564,379.3
		c-86.3,0-156.5-70.2-156.5-156.5c0-86.3,70.2-156.5,156.5-156.5s156.5,70.2,156.5,156.5C720.5,309.1,650.3,379.3,564,379.3z
		 M564,94.5c-70.8,0-128.3,57.6-128.3,128.3c0,70.8,57.6,128.3,128.3,128.3s128.3-57.6,128.3-128.3C692.3,152,634.7,94.5,564,94.5z
		 M635.7,256h-38.5v38.5h-66.5V256h-38.5v-66.5h38.5v-38.5h66.5v38.5h38.5V256z"/>
	<g>
		<path class="st1" d="M519.6,442.2c-3.3,0.6-6.6,0.9-10,0.9c-14.6,0-28.7-6.1-38.7-16.7l-25.3-26.9c-3.8-4-8.2-7.2-13.1-9.5
			l-31.8-15l-19.3,79.3l77.1-2.7l67.2,37.8l12.3-50.6L519.6,442.2z"/>
		<path class="st1" d="M695.4,390c-5,2.3-9.4,5.6-13.1,9.5L657,426.4c-10,10.6-24.1,16.7-38.7,16.7c0,0,0,0,0,0
			c-3.3,0-6.7-0.3-10-0.9l-17.3-3.3l12.3,50.4l67.2-37.8l77.1,2.7l-19.4-79.7L695.4,390z"/>
	</g>
</g>
</svg>
