<?xml version="1.0" encoding="utf-8"?>
<!-- Generator: Adobe Illustrator 26.0.2, SVG Export Plug-In . SVG Version: 6.00 Build 0)  -->
<svg version="1.1" id="Layer_1" xmlns="http://www.w3.org/2000/svg" xmlns:xlink="http://www.w3.org/1999/xlink" x="0px" y="0px"
	 viewBox="0 0 512 512" style="enable-background:new 0 0 512 512;" xml:space="preserve">
<style type="text/css">
	.st0{fill:#0071BC;}
</style>
<desc>Created with Sketch.</desc>
<g>
	<path class="st0" d="M480.5,202.2L461,166.6c-4.2-7.7-6.9-16-8-24.7l-5.2-40.3c-1.6-12.3-9.2-22.7-20.4-28l-36.7-17.3
		c-8-3.8-15.1-8.9-21.1-15.3l-27.8-29.5c-8.5-9-20.8-13-33-10.7l-39.8,7.6c-8.7,1.6-17.5,1.6-26.1,0l-39.8-7.6
		c-12.2-2.3-24.5,1.7-33,10.7l-27.8,29.5c-6,6.4-13.1,11.6-21.1,15.3L84.5,73.6c-11.2,5.3-18.8,15.8-20.4,28L59,141.9
		c-1.1,8.7-3.8,17-8,24.7l-19.5,35.7c-5.9,10.8-5.9,23.8,0,34.6L51,272.5c4.2,7.7,6.9,16,8,24.7l5.2,40.3c1.6,12.3,9.2,22.7,20.4,28
		l36.7,17.3c8,3.8,15.1,8.9,21.1,15.3l27.8,29.5c8.5,9,20.8,13,33,10.7l39.8-7.6c4.3-0.8,8.7-1.2,13.1-1.2c4.4,0,8.7,0.4,13.1,1.2
		l39.8,7.6c12.2,2.3,24.5-1.7,33-10.7l27.8-29.5c6-6.4,13.1-11.6,21.1-15.3l36.7-17.3c11.2-5.3,18.8-15.8,20.4-28l5.2-40.3
		c1.1-8.7,3.8-17,8-24.7l19.5-35.7C486.5,226,486.5,213.1,480.5,202.2z M256,391.3c-94.7,0-171.8-77-171.8-171.8
		c0-94.7,77-171.8,171.8-171.8s171.8,77,171.8,171.8C427.8,314.3,350.7,391.3,256,391.3z M256,78.7c-77.6,0-140.8,63.2-140.8,140.8
		c0,77.6,63.2,140.8,140.8,140.8s140.8-63.2,140.8-140.8C396.8,141.9,333.6,78.7,256,78.7z M334.7,256h-42.3v42.3h-72.9V256h-42.3
		v-72.9h42.3v-42.3h72.9v42.3h42.3V256z"/>
	<g>
		<path class="st0" d="M207.3,460.3c-3.6,0.7-7.3,1-10.9,1c-16,0-31.4-6.7-42.4-18.4l-27.8-29.5c-4.1-4.4-9-7.9-14.4-10.5
			l-34.9-16.5l-21.2,87l84.6-2.9L214,512l13.5-55.5L207.3,460.3z"/>
		<path class="st0" d="M400.3,403c-5.4,2.6-10.3,6.1-14.4,10.5L358.1,443c-11,11.7-26.4,18.4-42.4,18.4c0,0,0,0,0,0
			c-3.7,0-7.3-0.3-10.9-1l-19-3.6l13.4,55.3l73.8-41.4l84.6,2.9L436.3,386L400.3,403z"/>
	</g>
</g>
</svg>
